<svg width="20" height="19" viewBox="0 0 20 19" fill="none" xmlns="http://www.w3.org/2000/svg">
  <path d="M18.7042 0.851191C18.577 0.723724 18.4259 0.622596 18.2595 0.553597C18.0932 0.484597 17.9149 0.449081 17.7348 0.449081C17.5547 0.449081 17.3764 0.484597 17.2101 0.553597C17.0437 0.622596 16.8926 0.723724 16.7654 0.851191L10.0417 7.56119L3.31792 0.837441C3.19062 0.710141 3.03949 0.609161 2.87317 0.540267C2.70684 0.471372 2.52858 0.435913 2.34855 0.435913C2.16852 0.435913 1.99025 0.471372 1.82392 0.540267C1.6576 0.609161 1.50647 0.710141 1.37917 0.837441C1.25187 0.964741 1.15089 1.11587 1.082 1.28219C1.0131 1.44852 0.977642 1.62679 0.977642 1.80682C0.977642 1.98685 1.0131 2.16511 1.082 2.33144C1.15089 2.49776 1.25187 2.64889 1.37917 2.77619L8.10292 9.49994L1.37917 16.2237C1.25187 16.351 1.15089 16.5021 1.082 16.6684C1.0131 16.8348 0.977642 17.013 0.977642 17.1931C0.977642 17.3731 1.0131 17.5514 1.082 17.7177C1.15089 17.884 1.25187 18.0351 1.37917 18.1624C1.50647 18.2897 1.6576 18.3907 1.82392 18.4596C1.99025 18.5285 2.16852 18.564 2.34855 18.564C2.52858 18.564 2.70684 18.5285 2.87317 18.4596C3.03949 18.3907 3.19062 18.2897 3.31792 18.1624L10.0417 11.4387L16.7654 18.1624C16.8927 18.2897 17.0438 18.3907 17.2102 18.4596C17.3765 18.5285 17.5548 18.564 17.7348 18.564C17.9148 18.564 18.0931 18.5285 18.2594 18.4596C18.4257 18.3907 18.5769 18.2897 18.7042 18.1624C18.8315 18.0351 18.9324 17.884 19.0013 17.7177C19.0702 17.5514 19.1057 17.3731 19.1057 17.1931C19.1057 17.013 19.0702 16.8348 19.0013 16.6684C18.9324 16.5021 18.8315 16.351 18.7042 16.2237L11.9804 9.49994L18.7042 2.77619C19.2267 2.25369 19.2267 1.37369 18.7042 0.851191Z" fill="#808191"/>
</svg>